<?xml version="1.0" encoding="UTF-8"?> <!-- Generator: Adobe Illustrator 23.0.3, SVG Export Plug-In . SVG Version: 6.00 Build 0) --> <svg xmlns="http://www.w3.org/2000/svg" xmlns:xlink="http://www.w3.org/1999/xlink" id="Слой_1" x="0px" y="0px" viewBox="0 0 89.7 15.9" style="enable-background:new 0 0 89.7 15.9;" xml:space="preserve"> <style type="text/css"> .st0{fill:#292929;} </style> <title>logo-light</title> <g> <g id="Слой_1-2"> <path class="st0" d="M75.7,0.3v15.3h-2.1L65,4.3v11.3h-2.5V0.3h2.3l8.4,11v-11H75.7z M34.9,6.4l-3.7-6.2h-7l-5.3,6.2V0.3h-4.3 v15.3h4.3v-4l1.6-1.7l3.9,5.7h5.2l-6.1-8.7l4.7-5.2l5.1,7.9v6h3.4V9.5l6-9.2h-3.9L34.9,6.4z M13.6,10.9c0,3.1-2.5,5-6.3,5 C4.6,15.9,2,15,0,13.3l2.4-2.8c1.4,1.2,3.2,1.8,5,1.8c1.2,0,1.8-0.4,1.8-1.1s-0.5-1-2.6-1.5C3.3,9,0.7,8.1,0.7,4.9 C0.7,2.1,3,0,6.8,0c2.3-0.1,4.6,0.6,6.4,2L11,5C9.7,4.1,8.2,3.6,6.6,3.5c-1,0-1.6,0.4-1.6,1s0.5,1,2.7,1.5 C11.3,6.8,13.6,7.9,13.6,10.9 M47,12.5h7.1v3.1H43.6V0.3H47V12.5z M89.7,14.5v1.1H79.1V0.3h10.4v1h-9.3v6h8.3v1.1h-8.3v6.2 L89.7,14.5z M56.8,0.3h2.7v15.3h-2.7V0.3z"></path> </g> </g> </svg> 