<svg xmlns="http://www.w3.org/2000/svg" viewBox="0 0 89.7 15.9"><path d="M75.7.3v15.3h-2.1L65 4.3v11.3h-2.5V.3h2.3l8.4 11V.3h2.5zM34.9 6.4L31.2.2h-7l-5.3 6.2V.3h-4.3v15.3h4.3v-4l1.6-1.7 3.9 5.7h5.2l-6.1-8.7 4.7-5.2 5.1 7.9v6h3.4V9.5l6-9.2h-3.9l-3.9 6.1zm-21.3 4.5c0 3.1-2.5 5-6.3 5-2.7 0-5.3-.9-7.3-2.6l2.4-2.8c1.4 1.2 3.2 1.8 5 1.8 1.2 0 1.8-.4 1.8-1.1s-.5-1-2.6-1.5C3.3 9 .7 8.1.7 4.9.7 2.1 3 0 6.8 0c2.3-.1 4.6.6 6.4 2L11 5c-1.3-.9-2.8-1.4-4.4-1.5-1 0-1.6.4-1.6 1s.5 1 2.7 1.5c3.6.8 5.9 1.9 5.9 4.9M47 12.5h7.1v3.1H43.6V.3H47v12.2zm42.7 2v1.1H79.1V.3h10.4v1h-9.3v6h8.3v1.1h-8.3v6.2l9.5-.1zM56.8.3h2.7v15.3h-2.7V.3z" fill="#292929"/></svg>